<mxfile host="app.diagrams.net" modified="2024-07-05T05:41:16.864Z" agent="Mozilla/5.0 (Macintosh; Intel Mac OS X 10_15_7) AppleWebKit/537.36 (KHTML, like Gecko) Chrome/126.0.0.0 Safari/537.36" version="24.6.4" etag="_nAEJhSmIIZx67C8p7xW" type="github">
  <diagram name="페이지-1" id="1DIxnrXx9YBGwn-6x-5v">
    <mxGraphModel>
      <root>
        <mxCell id="0" />
        <mxCell id="1" parent="0" />
      </root>
    </mxGraphModel>
  </diagram>
</mxfile>
